<?xml version="1.0" standalone="no"?>
<!DOCTYPE svg PUBLIC "-//W3C//DTD SVG 20010904//EN"
 "http://www.w3.org/TR/2001/REC-SVG-20010904/DTD/svg10.dtd">
<svg version="1.0" xmlns="http://www.w3.org/2000/svg"
 width="540.000000pt" height="540.000000pt" viewBox="0 0 540.000000 540.000000"
 preserveAspectRatio="xMidYMid meet">
<metadata>
Created by potrace 1.14, written by Peter Selinger 2001-2017
</metadata>
<g transform="translate(0.000000,540.000000) scale(0.100000,-0.100000)"
fill="#000000" stroke="none">
<path d="M940 5391 c0 -4 27 -12 60 -17 l61 -9 -155 -141 -154 -142 45 -6 c25
-3 68 -6 94 -6 27 0 49 -2 49 -5 0 -3 -49 -63 -109 -133 l-110 -127 95 -3 95
-3 -26 -47 c-27 -49 -205 -465 -201 -469 1 -2 31 7 65 18 34 12 64 19 67 16 3
-3 -10 -54 -30 -115 l-35 -109 29 -76 c17 -42 34 -104 39 -139 5 -35 35 -166
65 -292 31 -125 56 -230 56 -233 0 -2 -11 8 -24 24 -67 79 -213 116 -299 74
-77 -37 -118 -116 -138 -269 -32 -244 43 -506 205 -707 68 -86 185 -189 256
-226 55 -29 134 -36 182 -16 l36 15 32 -127 c18 -69 40 -142 50 -161 33 -64
173 -181 393 -329 59 -39 107 -76 107 -82 0 -5 -8 -18 -18 -29 -13 -14 -56
-25 -182 -45 -262 -41 -457 -83 -509 -109 -139 -71 -278 -257 -327 -441 -18
-66 -32 -384 -33 -727 l-1 -198 705 0 c388 0 705 2 705 4 0 2 -12 29 -26 60
-52 114 -73 309 -89 826 l-6 205 29 -60 c79 -163 254 -241 562 -252 345 -12
571 46 692 175 54 57 73 93 92 164 l13 53 14 -75 c25 -133 12 -659 -26 -1047
l-5 -53 666 0 665 0 -4 438 c-4 476 -4 475 -66 607 -74 159 -198 290 -312 330
-59 21 -206 49 -414 79 -127 19 -192 33 -222 48 -24 13 -43 25 -43 28 1 3 65
47 143 98 162 105 279 199 308 245 20 33 52 130 90 278 l23 87 29 -10 c15 -6
52 -8 82 -6 69 6 143 50 246 146 136 128 223 265 276 439 24 80 26 103 27 258
1 191 -11 250 -64 323 -71 98 -216 111 -325 28 -54 -42 -44 -8 20 66 30 34 55
66 55 70 0 3 -15 19 -34 35 l-34 28 20 90 c13 62 21 152 25 289 l6 199 48 30
48 29 -19 47 c-10 25 -34 87 -55 137 l-36 92 34 54 35 54 -74 86 c-41 48 -71
89 -67 91 5 2 32 12 61 21 28 10 52 19 52 22 0 2 -29 27 -65 55 -36 28 -64 53
-63 55 2 1 35 -1 73 -6 38 -5 71 -7 73 -6 1 2 -45 41 -103 87 -120 93 -120 89
8 109 42 7 77 16 77 20 0 4 -59 46 -132 95 l-132 88 28 23 27 24 -1685 0
c-935 0 -1686 -4 -1686 -9z m2727 -629 c50 -40 168 -175 220 -252 66 -98 125
-239 168 -402 l26 -97 -25 -97 c-24 -93 -24 -99 -7 -110 10 -7 42 -32 71 -55
l53 -42 -44 -38 -44 -38 35 -36 35 -36 -4 -195 c-2 -115 1 -194 6 -194 5 0 31
7 57 16 26 9 50 13 53 10 4 -3 -3 -52 -15 -109 -13 -56 -43 -212 -67 -347 -64
-347 -170 -765 -211 -827 -33 -51 -348 -268 -654 -450 -266 -158 -249 -152
-400 -164 -188 -16 -574 -8 -621 13 -86 38 -630 389 -799 517 -159 120 -176
138 -205 234 -57 189 -266 1160 -252 1174 2 2 23 -4 47 -12 23 -8 46 -15 50
-15 4 0 10 68 14 152 7 147 8 153 37 192 16 22 29 43 29 46 0 4 -22 19 -50 34
-27 15 -52 30 -54 35 -3 4 24 55 59 113 l63 106 -35 58 c-31 52 -34 62 -28
108 14 103 73 259 138 366 69 115 237 299 304 334 32 16 36 15 150 -18 135
-39 303 -69 515 -91 81 -8 150 -15 152 -15 3 0 17 -17 31 -37 21 -32 25 -34
25 -15 0 31 13 28 49 -14 29 -33 51 -38 51 -11 0 7 5 19 10 27 8 13 11 13 22
-3 13 -17 16 -16 53 16 38 32 45 34 140 40 204 12 459 62 655 127 63 21 122
39 132 39 9 1 38 -16 65 -37z m-2879 -1398 c54 -27 124 -104 162 -179 16 -31
140 -604 140 -646 0 -5 -14 -9 -31 -9 -22 0 -38 9 -57 32 -85 100 -91 171 -21
244 l30 31 -26 79 c-37 111 -107 251 -150 302 -46 53 -105 84 -152 80 -31 -3
-39 -9 -61 -51 -29 -57 -35 -152 -13 -230 12 -40 17 -47 35 -45 24 3 24 12 6
103 -11 52 -10 69 4 118 18 63 32 70 85 43 29 -15 91 -80 91 -95 0 -5 -16 -11
-36 -14 -39 -7 -74 -32 -74 -54 0 -23 23 -24 65 -3 57 29 72 26 95 -20 43 -84
43 -84 -6 -118 -77 -55 -112 -144 -95 -239 5 -26 8 -49 7 -50 -2 -2 -17 17
-35 42 -32 45 -71 61 -71 29 0 -9 32 -58 71 -111 105 -139 162 -170 258 -138
81 27 92 21 112 -58 17 -67 17 -67 -4 -82 -12 -8 -39 -15 -61 -15 -138 0 -369
242 -448 470 -68 196 -63 475 10 561 46 56 92 62 170 23z m3855 12 c58 -24 91
-104 102 -249 13 -160 -30 -341 -116 -494 -53 -94 -199 -247 -279 -292 -56
-32 -141 -43 -155 -21 -4 6 1 44 10 85 19 84 19 84 96 59 64 -21 113 -9 170
43 51 46 162 200 154 213 -14 22 -42 7 -74 -40 -19 -28 -35 -50 -37 -50 -1 0
2 15 7 32 28 101 -8 213 -87 270 -24 17 -44 33 -44 36 0 2 12 31 27 64 26 59
27 60 61 53 19 -4 45 -13 58 -22 27 -17 44 -10 44 17 0 22 -30 41 -78 49 l-33
6 24 32 c33 45 70 72 106 79 29 6 32 4 47 -32 16 -39 15 -122 -2 -212 -6 -31
-5 -33 17 -30 19 2 26 12 36 48 34 133 -6 280 -78 280 -104 0 -210 -131 -288
-353 -32 -92 -38 -127 -21 -127 5 0 22 -18 36 -40 39 -59 31 -120 -25 -195
-41 -54 -81 -74 -81 -39 0 69 109 609 135 669 17 41 90 122 129 143 63 34 92
38 139 18z m-3699 -498 c5 -24 1 -37 -13 -52 -28 -29 -51 -89 -51 -128 1 -43
29 -105 70 -151 l32 -37 -33 0 c-36 0 -113 40 -91 47 17 6 15 24 -8 74 -22 49
-27 140 -10 185 11 27 74 94 89 94 5 0 11 -14 15 -32z m3499 -30 c41 -51 46
-115 14 -205 -15 -45 -21 -75 -15 -81 15 -15 -40 -52 -79 -52 l-35 0 31 39
c78 98 81 191 9 292 -6 9 -8 28 -4 43 6 26 8 27 29 13 12 -8 34 -30 50 -49z
m-2253 -1577 c107 -64 119 -66 465 -66 198 1 331 5 369 13 34 7 91 31 137 57
43 25 81 45 85 45 16 0 -4 -167 -26 -218 -67 -156 -296 -232 -658 -219 -168 6
-261 24 -349 67 -120 59 -163 141 -163 312 l0 98 38 -25 c20 -13 66 -42 102
-64z"/>
<path d="M1525 3831 c-39 -18 -175 -126 -175 -139 0 -4 84 -6 187 -4 224 4
357 -15 593 -82 172 -50 163 -55 106 64 l-31 65 -135 32 c-194 47 -393 83
-453 83 -29 0 -70 -9 -92 -19z"/>
<path d="M3720 3844 c-14 -3 -77 -11 -140 -20 -106 -14 -510 -90 -515 -96 -1
-2 -23 -43 -50 -91 -44 -83 -46 -88 -24 -83 13 3 123 30 244 60 515 128 529
130 664 83 39 -14 71 -22 71 -18 0 16 -93 117 -131 143 -40 26 -61 30 -119 22z"/>
<path d="M2920 3708 c-18 -39 -39 -90 -46 -114 -12 -41 -12 -44 6 -44 11 0 20
6 20 13 0 9 50 135 76 193 3 6 -1 14 -9 17 -11 4 -24 -15 -47 -65z"/>
<path d="M2252 3751 c-10 -6 -6 -25 16 -86 29 -79 47 -99 63 -74 6 10 9 6 9
-13 0 -21 5 -28 20 -28 11 0 20 5 20 10 0 6 9 10 20 10 16 0 20 6 19 33 -2 65
-23 132 -43 135 -17 4 -18 0 -11 -29 16 -72 22 -120 15 -124 -4 -3 -10 10 -14
27 -3 17 -18 56 -33 85 -21 40 -32 53 -45 50 -9 -3 -18 -1 -20 4 -2 4 -9 5
-16 0z m77 -131 c0 -10 -3 -8 -9 5 -12 27 -12 43 0 25 5 -8 9 -22 9 -30z"/>
<path d="M2988 3701 c-15 -25 -36 -70 -47 -98 -19 -49 -19 -53 -3 -53 12 1 30
28 57 87 22 47 41 89 43 93 2 4 -3 10 -11 13 -8 3 -23 -13 -39 -42z"/>
<path d="M2857 3675 c-15 -31 -31 -73 -36 -95 -8 -35 -7 -40 9 -40 12 0 20 10
24 33 3 17 17 56 31 85 23 50 25 72 6 72 -4 0 -19 -25 -34 -55z"/>
<path d="M1582 3536 c-50 -10 -71 -21 -100 -49 -28 -29 -34 -39 -24 -49 9 -9
17 -7 34 9 38 34 61 42 159 54 122 15 258 4 368 -28 106 -31 114 -32 119 -12
3 18 -12 25 -128 61 -84 25 -333 34 -428 14z"/>
<path d="M3370 3535 c-59 -12 -207 -64 -238 -83 -15 -10 -6 -42 12 -42 6 0 20
6 31 14 11 7 65 28 120 45 121 39 260 50 384 31 74 -11 84 -16 110 -47 27 -33
51 -37 51 -9 0 6 -17 28 -37 48 -30 29 -51 39 -97 47 -79 14 -255 12 -336 -4z"/>
<path d="M2832 3453 c-41 -75 -64 -420 -43 -633 9 -98 17 -131 55 -224 25 -60
42 -115 38 -122 -4 -7 -33 -41 -64 -77 -54 -61 -61 -65 -110 -71 -70 -9 -156
8 -188 38 -16 15 -38 23 -61 23 -47 1 -117 37 -131 68 -8 18 -8 32 2 55 10 24
10 34 1 43 -17 16 -48 -22 -57 -69 -5 -30 -2 -40 22 -66 34 -35 82 -61 144
-78 25 -7 58 -21 74 -33 25 -17 48 -21 140 -25 l111 -4 32 30 c17 16 49 33 69
37 124 23 174 57 174 119 0 65 -9 86 -36 86 -27 0 -28 -2 -14 -50 14 -50 5
-66 -47 -84 -52 -18 -74 -12 -25 6 31 12 43 28 22 28 -5 0 -10 14 -10 31 0 16
-20 79 -45 139 -44 109 -45 110 -55 286 -12 194 -2 365 26 469 9 33 17 67 18
75 2 21 -31 24 -42 3z"/>
<path d="M1575 3443 c-109 -24 -165 -93 -150 -185 l7 -42 18 34 c10 19 26 43
37 52 25 23 98 48 139 48 l34 0 -17 -27 c-23 -34 -22 -118 1 -162 111 -211
446 -124 424 109 -6 58 -7 58 91 14 30 -13 56 -22 59 -19 7 7 -44 71 -75 93
-41 29 -158 68 -240 81 -69 11 -286 13 -328 4z m398 -103 c23 0 27 -4 27 -27
0 -36 -27 -63 -63 -63 -42 0 -67 26 -67 68 0 34 0 35 38 28 20 -3 49 -6 65 -6z"/>
<path d="M3341 3435 c-138 -30 -228 -75 -269 -133 -34 -47 -27 -51 36 -21 101
48 99 49 98 -23 0 -69 18 -113 62 -156 141 -132 381 -39 382 149 0 25 -7 54
-15 65 -21 28 -19 34 13 34 74 0 146 -41 175 -101 l15 -32 7 42 c13 80 -39
157 -122 180 -54 15 -306 12 -382 -4z m239 -117 c0 -41 -25 -68 -63 -68 -41 0
-67 26 -67 67 l0 33 65 0 65 0 0 -32z"/>
<path d="M2365 2450 c-3 -6 5 -14 19 -20 15 -5 40 -17 56 -25 28 -15 30 -14
30 4 0 11 -7 27 -16 35 -17 18 -79 22 -89 6z"/>
<path d="M3279 2129 c-67 -34 -219 -73 -343 -90 -58 -7 -179 -10 -345 -6 -281
5 -384 18 -534 68 -104 34 -107 35 -107 10 0 -35 171 -85 385 -112 129 -17
525 -17 630 -1 203 31 405 102 405 143 0 25 -22 23 -91 -12z"/>
<path d="M2310 1826 c0 -17 8 -20 108 -41 86 -18 203 -19 362 -4 119 11 160
23 142 41 -7 7 -36 6 -94 -3 -114 -19 -344 -17 -431 4 -83 21 -87 21 -87 3z"/>
</g>
</svg>
